<svg version="1.1" id="Layer_1" xmlns="http://www.w3.org/2000/svg" xmlns:xlink="http://www.w3.org/1999/xlink" x="0px" y="0px"
	 width="100%" viewBox="0 0 612 612" enable-background="new 0 0 612 612" xml:space="preserve">
<path fill="#FFFEFE" opacity="1.000000" stroke="none" 
	d="
M281.000000,613.000000 
	C187.333344,613.000000 94.166702,613.000000 1.000037,613.000000 
	C1.000025,409.000061 1.000025,205.000107 1.000013,1.000120 
	C204.999924,1.000080 408.999847,1.000080 612.999817,1.000040 
	C612.999878,204.999878 612.999878,408.999756 612.999939,612.999817 
	C502.500000,613.000000 392.000000,613.000000 281.000000,613.000000 
M317.585114,226.241959 
	C317.424774,226.566467 317.264404,226.890976 316.950562,227.647263 
	C316.758698,227.911850 316.500122,228.060104 315.632782,228.228409 
	C315.462860,228.543869 315.292908,228.859344 315.058899,229.039505 
	C315.058899,229.039505 315.167999,229.142014 314.473755,229.109985 
	C314.018158,229.785477 313.562592,230.460983 313.015320,231.027695 
	C313.015320,231.027695 313.134338,231.105637 312.413300,231.087799 
	C308.897491,233.651352 305.609131,234.749512 302.554413,230.262390 
	C301.984070,229.424606 300.245667,229.382034 299.000000,228.999985 
	C299.000000,228.999985 299.027252,228.953506 299.041077,228.225494 
	C297.334045,225.641617 296.186676,222.243896 293.821350,220.617294 
	C284.478668,214.192474 275.258972,207.209244 265.025024,202.569733 
	C255.325531,198.172501 245.114746,193.438614 233.915695,194.233322 
	C230.942978,194.444275 227.642181,190.784668 224.132767,194.875473 
	C222.747528,194.811783 221.362274,194.748077 219.581238,194.281769 
	C218.728851,194.413742 217.876450,194.545715 216.141678,194.824356 
	C213.755661,194.824951 211.369629,194.825562 208.811722,194.082291 
	C208.283203,193.747452 207.700333,193.058929 207.234299,193.130569 
	C199.651520,194.296341 192.022446,195.279022 184.537842,196.915802 
	C180.761383,197.741669 176.818497,199.193680 173.729401,201.435379 
	C169.575470,204.449829 162.848969,203.661209 161.000244,210.000610 
	C161.000244,210.000610 160.973587,209.980865 160.179184,209.959869 
	C153.689148,213.635178 145.283554,215.868958 141.171234,221.333572 
	C135.424789,228.969711 126.880783,234.180481 122.968437,243.348587 
	C120.167587,249.912048 117.222633,256.736969 112.799622,262.195465 
	C108.268585,267.787292 108.369041,274.422821 106.400719,280.472534 
	C104.400406,286.620514 104.105911,293.529480 104.154167,300.097168 
	C104.271652,316.087708 103.425629,332.307983 111.484909,347.127167 
	C112.934380,349.792450 113.973251,352.740082 114.788719,355.672180 
	C115.421303,357.946777 120.599907,365.828705 123.199356,367.479095 
	C123.463814,367.996124 123.728264,368.513123 123.953911,369.822205 
	C124.330238,371.382690 124.245804,373.319580 125.160957,374.439941 
	C129.633926,379.915771 134.217072,385.324585 139.119125,390.412292 
	C140.495346,391.840576 143.086151,392.098602 145.001999,392.992554 
	C145.001999,392.992554 145.106750,392.879486 145.026672,393.641083 
	C146.007355,395.064667 146.685074,396.941254 148.020508,397.834412 
	C154.221405,401.981689 160.302155,406.484467 166.983551,409.701996 
	C182.306442,417.080841 198.609772,421.130463 215.705124,420.880981 
	C223.245758,420.770935 230.762314,419.505066 238.306366,419.023376 
	C250.558685,418.241089 261.612885,413.312347 272.093811,407.845947 
	C280.850555,403.278809 288.367310,396.307068 296.343353,390.281281 
	C300.484528,387.152740 304.431244,383.766754 308.258575,380.665009 
	C309.003540,381.035583 310.963898,382.010742 313.479523,383.366943 
	C341.263947,411.832123 374.973877,424.023102 414.231262,417.710144 
	C488.325470,405.795105 529.559875,325.583160 496.999603,257.886292 
	C475.435638,213.052048 424.826172,187.140686 376.312469,196.248062 
	C354.528503,200.337524 335.316681,209.692566 318.663147,225.213669 
	C318.467102,225.516922 318.271057,225.820190 318.035004,226.035049 
	C318.035004,226.035049 318.123474,226.074890 317.585114,226.241959 
M583.263123,496.804535 
	C585.418030,493.125641 587.572937,489.446777 590.180542,484.994995 
	C583.822815,484.994995 578.320923,485.539612 572.973389,484.863373 
	C565.530151,483.922119 561.018616,486.376404 557.785034,493.293152 
	C554.524109,500.268341 549.997925,506.651978 545.591492,514.021667 
	C540.275757,504.999512 535.313904,496.939911 530.761230,488.655426 
	C529.159180,485.740173 527.336365,484.906311 524.134888,484.918396 
	C492.487793,485.037842 460.840057,484.984497 429.192474,484.997162 
	C427.739929,484.997742 426.287445,485.159943 424.672455,485.256592 
	C424.672455,492.608215 424.672455,499.655609 424.672455,507.276489 
	C432.948242,507.276489 440.852661,507.276489 449.132294,507.276489 
	C449.132294,528.105103 449.132294,548.356873 449.132294,568.690247 
	C458.604584,568.690247 467.665039,568.690247 477.318268,568.690247 
	C477.318268,548.000305 477.318268,527.623474 477.318268,506.733612 
	C485.817291,506.733612 493.726013,506.733612 502.080139,506.733612 
	C502.080139,501.679077 502.080139,497.143036 502.080139,491.295380 
	C503.711670,493.789795 504.637390,495.099670 505.456085,496.473328 
	C512.779175,508.760010 520.254822,520.961365 527.273254,533.420044 
	C529.040527,536.557190 529.972656,540.495300 530.161377,544.123962 
	C530.582581,552.221497 530.292969,560.356079 530.292969,568.616699 
	C540.056946,568.616699 549.250244,568.616699 558.769104,568.616699 
	C558.769104,559.756104 558.583435,551.279175 558.872986,542.818420 
	C558.970154,539.979431 559.725952,536.866516 561.125000,534.418396 
	C568.221863,521.999268 575.629150,509.757477 583.263123,496.804535 
M113.460899,500.021881 
	C110.044121,495.931946 106.672874,491.802460 103.180206,487.778381 
	C102.245094,486.700989 100.963966,485.201874 99.799675,485.163269 
	C92.543488,484.922668 85.275383,485.041931 78.033859,485.041931 
	C78.033859,513.329895 78.033859,540.921021 78.033859,568.630493 
	C87.216797,568.630493 96.096161,568.630493 105.699203,568.630493 
	C105.699203,556.482178 105.699203,544.704346 105.699203,531.637451 
	C108.091011,534.339722 109.540115,535.905090 110.910233,537.536743 
	C118.836014,546.975159 126.707634,556.459412 134.697708,565.842957 
	C135.798798,567.136108 137.419037,568.790588 138.861420,568.853821 
	C145.950592,569.164795 153.060867,568.994995 160.363464,568.994995 
	C160.363464,540.766907 160.363464,513.183655 160.363464,485.293793 
	C151.230301,485.293793 142.338440,485.293793 132.840118,485.293793 
	C132.840118,497.492432 132.840118,509.504669 132.840118,522.898071 
	C125.908508,514.714233 119.915649,507.638763 113.460899,500.021881 
M320.233948,566.313721 
	C320.233948,555.087463 320.233948,543.861267 320.233948,531.230896 
	C322.073059,533.183716 322.771881,533.856018 323.391846,534.594482 
	C332.064240,544.924805 340.687347,555.296997 349.434875,565.563171 
	C350.634705,566.971191 352.394287,568.758362 353.973389,568.839478 
	C360.931793,569.197144 367.919006,568.993958 375.174744,568.993958 
	C375.174744,540.831299 375.174744,513.091614 375.174744,485.374451 
	C365.931061,485.374451 357.032318,485.374451 347.669189,485.374451 
	C347.669189,497.634186 347.669189,509.517151 347.669189,522.701477 
	C345.225464,519.862915 343.610748,518.027771 342.039948,516.155884 
	C334.224457,506.842377 326.455444,497.489532 318.572876,488.233307 
	C317.462402,486.929321 315.855072,485.230255 314.412720,485.165680 
	C307.326843,484.848541 300.219025,485.021667 293.066315,485.021667 
	C293.066315,513.291931 293.066315,540.884888 293.066315,568.968140 
	C301.602509,568.968140 309.887970,569.007996 318.171326,568.894958 
	C318.856323,568.885559 319.527161,567.840576 320.233948,566.313721 
M189.503250,484.994476 
	C184.395584,484.994476 179.287903,484.994476 174.136978,484.994476 
	C174.136978,513.301086 174.136978,540.991211 174.136978,568.604309 
	C183.596436,568.604309 192.651535,568.604309 202.235977,568.604309 
	C202.235977,559.635437 202.235977,551.061890 202.235977,541.993774 
	C214.014038,541.993774 225.258362,541.993774 236.666687,541.993774 
	C236.666687,534.752380 236.666687,528.036438 236.666687,520.693420 
	C224.960342,520.693420 213.581467,520.693420 201.977417,520.693420 
	C201.977417,518.904785 201.984253,517.747864 201.976349,516.591064 
	C201.905792,506.256927 201.905029,506.252563 212.088852,506.246552 
	C221.862900,506.240753 231.636948,506.245300 241.667664,506.245300 
	C241.667664,498.890472 241.667664,492.173279 241.667664,484.994476 
	C224.405807,484.994476 207.453781,484.994476 189.503250,484.994476 
M274.338257,569.005188 
	C275.779602,568.900085 277.220917,568.794922 278.581604,568.695679 
	C278.581604,540.622070 278.581604,512.920654 278.581604,485.249420 
	C269.215851,485.249420 260.274353,485.249420 251.140091,485.249420 
	C251.140091,513.212097 251.140091,540.911377 251.140091,569.006042 
	C258.770844,569.006042 266.069397,569.006042 274.338257,569.005188 
M47.514946,569.009583 
	C52.930702,569.009583 58.346455,569.009583 63.667595,569.009583 
	C63.667595,540.584534 63.667595,513.015442 63.667595,485.316956 
	C54.269608,485.316956 45.209785,485.316956 36.165665,485.316956 
	C36.165665,513.343872 36.165665,541.032837 36.165665,569.008118 
	C39.896370,569.008118 43.208900,569.008118 47.514946,569.009583 
M388.809265,519.500000 
	C388.809265,535.907654 388.809265,552.315308 388.809265,568.608887 
	C398.660339,568.608887 407.720886,568.608887 416.712402,568.608887 
	C416.712402,540.622925 416.712402,513.039001 416.712402,485.302612 
	C407.355835,485.302612 398.292816,485.302612 388.809174,485.302612 
	C388.809174,496.572723 388.809174,507.536346 388.809265,519.500000 
z"/>
<path fill="#B72228" opacity="1.000000" stroke="none" 
	d="
M319.216370,225.113022 
	C335.316681,209.692566 354.528503,200.337524 376.312469,196.248062 
	C424.826172,187.140686 475.435638,213.052048 496.999603,257.886292 
	C529.559875,325.583160 488.325470,405.795105 414.231262,417.710144 
	C374.973877,424.023102 341.263947,411.832123 313.124542,382.859650 
	C311.076263,380.358917 309.382935,378.365479 307.865356,376.053162 
	C319.385406,364.393768 330.729706,353.053223 342.264709,341.828857 
	C342.683136,342.152435 342.950623,342.267334 343.434509,342.552582 
	C343.715027,342.999207 343.818848,343.183014 343.908203,343.534027 
	C343.981781,343.953369 344.157898,344.059998 344.630524,344.312164 
	C357.296600,360.656982 373.504517,369.562927 393.963348,370.294128 
	C423.651398,371.355225 449.839478,351.640900 457.470978,322.528748 
	C464.825165,294.474396 451.181061,264.213013 425.274261,250.677643 
	C401.604736,238.311127 369.087616,241.018738 347.416016,265.923370 
	C345.129120,267.744720 343.164948,269.512115 341.052979,271.071838 
	C340.629547,271.278961 340.353851,271.693726 340.039246,272.075134 
	C340.000336,272.041748 340.099213,272.069061 339.734375,272.073242 
	C337.966522,273.449707 336.563507,274.821991 335.140625,276.097443 
	C335.120789,276.000641 335.194794,276.183990 334.871582,276.111542 
	C333.829376,275.914795 333.110352,275.790497 332.215271,275.635742 
	C332.583191,277.218689 332.842499,278.334290 332.981750,279.656494 
	C332.383362,280.277527 331.904999,280.691956 331.069153,281.070984 
	C330.474030,281.021698 330.236420,281.007782 329.650513,281.033325 
	C328.594543,282.116425 327.886841,283.160065 327.093323,284.101746 
	C327.007538,283.999847 327.187866,284.196472 326.878174,284.119873 
	C325.713135,284.362976 324.857788,284.682709 323.630829,285.076904 
	C322.865112,286.793732 322.470978,288.436127 322.042419,290.069336 
	C322.007965,290.060120 322.075500,290.037384 321.809265,290.172363 
	C321.388245,290.666443 321.233459,291.025574 320.946899,291.623108 
	C320.023773,292.600647 319.232391,293.339752 318.097778,294.134796 
	C316.572144,295.230438 313.364136,293.611786 314.012085,297.290161 
	C314.017426,297.533783 314.014923,298.021179 313.796326,298.128998 
	C313.305664,298.439026 313.126373,298.704071 312.682556,299.067383 
	C308.864929,301.172485 304.886627,302.804077 304.786194,307.934387 
	C304.637848,308.027832 304.306885,308.143799 303.947449,308.132843 
	C301.080109,309.496368 298.045441,310.389130 298.050842,314.093475 
	C297.994324,314.072845 298.110626,314.092804 297.849335,314.216553 
	C297.355194,314.855530 297.122375,315.370758 296.610291,315.955200 
	C295.905518,316.374298 295.479980,316.724213 294.827576,317.164856 
	C294.316254,317.447266 294.135773,317.710297 293.811890,318.200653 
	C293.372437,318.894379 293.180450,319.432190 292.943237,320.221375 
	C292.916046,320.642151 292.934052,320.811462 292.975464,320.991272 
	C292.998810,321.001709 292.979340,320.954407 292.722839,320.953125 
	C292.312958,321.027466 292.159576,321.103088 291.835876,321.177795 
	C291.665527,321.176880 291.324921,321.171234 290.950623,321.162109 
	C290.054535,322.090759 289.532745,323.028503 288.882904,324.223816 
	C288.489258,324.978912 288.223633,325.476501 287.981628,325.983704 
	C288.005280,325.993378 287.975281,325.951843 287.723145,325.935486 
	C287.305237,325.948639 287.139404,325.978119 286.659119,326.052490 
	C285.907623,326.735077 285.470581,327.372833 284.979980,328.252167 
	C284.926453,328.493774 284.942261,328.988464 284.972046,328.991028 
	C285.001801,328.993591 284.971130,328.942322 284.719452,328.947357 
	C284.301788,328.977112 284.135834,329.001862 283.611450,329.026215 
	C282.599792,329.753204 281.946503,330.480621 281.270966,331.201874 
	C281.248718,331.195709 281.202972,331.202362 280.917175,331.295227 
	C280.443085,331.932220 280.254822,332.476349 280.051270,333.027100 
	C280.035980,333.033752 280.033813,333.067017 279.692627,333.085052 
	C278.581696,334.074097 277.811920,335.045135 276.947296,336.343445 
	C276.882050,337.110046 276.911652,337.549408 276.971863,337.989136 
	C277.002441,337.989563 276.969543,337.937927 276.640808,337.843201 
	C275.866058,337.839813 275.420044,337.931091 274.784363,337.788269 
	C274.164856,338.183929 273.735016,338.813721 273.260986,339.608337 
	C273.216858,339.773132 273.017059,340.049744 272.798126,340.148132 
	C272.303131,340.439240 272.127319,340.699646 272.040436,341.029846 
	C272.029114,341.031982 272.024139,341.060242 271.647217,341.048889 
	C268.294769,341.611664 265.587128,343.485962 262.531250,340.211945 
	C255.090286,332.239960 247.189926,324.696869 239.479050,316.976624 
	C235.193085,312.685455 235.276077,312.381805 239.587372,307.829041 
	C241.900589,305.386322 243.910873,302.656677 246.397552,299.994751 
	C249.844116,296.639313 252.950958,293.345673 256.260468,289.927826 
	C256.716675,289.603851 256.916229,289.359924 257.268402,288.947388 
	C257.727570,288.614380 257.921936,288.361145 258.413574,288.036987 
	C259.866211,286.694061 260.963379,285.377380 262.400513,284.002930 
	C264.559875,281.711945 266.379242,279.478699 268.546417,277.163452 
	C269.946594,275.791748 270.998962,274.502075 272.145020,272.911530 
	C272.833740,271.756317 273.428802,270.902008 274.016907,270.029358 
	C274.009918,270.011017 274.046143,270.026031 274.260925,269.933960 
	C274.745422,269.664429 274.937134,269.424561 275.349854,268.968201 
	C284.790802,259.714752 293.958649,250.641190 303.036377,241.478363 
	C303.999908,240.505829 304.435516,239.010239 305.457642,237.773315 
	C308.244263,235.561417 310.689301,233.333527 313.134338,231.105621 
	C313.134338,231.105637 313.015320,231.027695 313.360107,231.014236 
	C314.192627,230.381195 314.680328,229.761612 315.168030,229.142029 
	C315.167999,229.142014 315.058899,229.039505 315.361176,229.039902 
	C315.833923,228.724213 316.004395,228.408127 316.174866,228.092041 
	C316.500122,228.060104 316.758698,227.911850 317.296082,227.349396 
	C317.802185,226.725967 317.962830,226.400421 318.123474,226.074890 
	C318.123474,226.074890 318.035004,226.035049 318.328400,226.021637 
	C318.819977,225.709824 319.018158,225.411423 319.216370,225.113022 
z"/>
<path fill="#EE8124" opacity="1.000000" stroke="none" 
	d="
M305.116028,237.757309 
	C304.435516,239.010239 303.999908,240.505829 303.036377,241.478363 
	C293.958649,250.641190 284.790802,259.714752 275.212280,268.787720 
	C274.532471,269.182953 274.289307,269.604492 274.046143,270.026031 
	C274.046143,270.026031 274.009918,270.011017 273.660706,269.980286 
	C271.652069,268.515259 269.974365,267.101440 268.337677,265.641602 
	C266.227753,263.759705 264.150726,261.840942 261.978027,259.614349 
	C259.431000,257.111908 257.166656,254.635025 254.462433,252.810013 
	C246.149063,247.199493 237.384857,242.687851 226.917084,242.919724 
	C218.186615,243.113113 208.948868,241.393433 200.841370,243.701691 
	C189.289963,246.990479 178.212173,252.577438 170.128159,262.377106 
	C162.805191,271.254211 156.738571,280.727478 154.414200,292.240814 
	C151.973526,304.330322 151.991806,316.475586 156.062408,328.033081 
	C160.443192,340.471252 167.122589,351.619720 178.644775,359.246521 
	C189.509720,366.438141 200.442474,372.867554 214.191818,372.058533 
	C218.607407,371.798706 223.393433,373.548553 227.451447,372.402039 
	C235.581467,370.105133 243.681671,367.112244 251.124283,363.148743 
	C257.782623,359.602936 264.828888,355.776550 268.019043,347.679688 
	C268.023285,346.877563 268.011963,346.419250 268.001770,345.986084 
	C268.002899,346.011261 267.953156,346.003265 268.266968,346.007538 
	C269.051575,345.653870 269.522369,345.295929 269.991364,344.969604 
	C269.989532,345.001251 269.933838,344.971039 270.274292,344.927979 
	C272.733032,342.569275 274.851288,340.253601 276.969543,337.937927 
	C276.969543,337.937927 277.002441,337.989563 277.251465,337.844513 
	C277.663330,337.117096 277.826141,336.534729 277.996643,335.976532 
	C278.004333,336.000702 277.954468,335.991486 278.298950,335.991821 
	C279.091187,335.309814 279.538971,334.627533 279.982849,333.971252 
	C279.978973,333.997314 279.929626,333.976196 280.307281,334.009155 
	C282.113647,332.342194 283.542389,330.642242 284.971130,328.942322 
	C284.971130,328.942322 285.001801,328.993591 285.237061,328.925171 
	C285.646790,328.552155 285.821289,328.247589 285.991272,327.968964 
	C285.986816,327.994904 285.938049,327.973480 286.284180,327.979675 
	C287.078613,327.307892 287.526947,326.629852 287.975281,325.951843 
	C287.975281,325.951843 288.005280,325.993378 288.390320,326.011414 
	C289.497681,324.839355 290.219971,323.649261 290.985596,322.240784 
	C291.123962,321.737396 291.222626,321.453674 291.324921,321.171234 
	C291.324921,321.171234 291.665527,321.176880 291.950195,321.349701 
	C292.483002,321.333160 292.731171,321.143799 292.979340,320.954407 
	C292.979340,320.954407 292.998810,321.001709 293.246338,320.942078 
	C293.659576,320.575104 293.825226,320.267792 293.995789,319.981567 
	C294.000702,320.002686 293.962219,319.982788 294.316284,320.001831 
	C295.439697,318.997925 296.209045,317.975037 296.991760,316.974335 
	C297.005157,316.996552 296.953278,316.996368 297.255005,316.862732 
	C297.703064,316.323517 297.849396,315.917908 298.013123,315.274994 
	C298.106995,314.726959 298.133698,314.411987 298.110626,314.092804 
	C298.110626,314.092804 297.994324,314.072845 298.299622,314.080688 
	C298.932983,314.028625 299.260986,313.968750 299.832977,314.155670 
	C300.710297,313.585693 301.343658,312.768890 301.989044,311.975525 
	C302.001068,311.998932 301.952423,311.979034 302.284912,311.998688 
	C303.142456,311.020508 303.667511,310.022675 304.208954,308.802979 
	C304.225342,308.581146 304.306885,308.143799 304.306885,308.143799 
	C304.306885,308.143799 304.637848,308.027832 304.931763,307.972473 
	C305.225677,307.917084 305.518097,307.981293 305.905579,307.999817 
	C306.854370,307.331909 307.415680,306.645508 307.990417,305.977783 
	C308.003906,305.996460 307.959198,305.985657 308.218323,305.923096 
	C308.646393,305.563080 308.815369,305.265625 308.990753,304.985901 
	C308.997131,305.003571 308.966309,304.981354 309.237793,304.938538 
	C309.668060,304.585602 309.826813,304.275482 309.992035,303.983948 
	C309.998535,304.002502 309.966431,303.979401 310.309753,303.987671 
	C311.093353,303.317108 311.533630,302.638275 311.986938,301.979736 
	C312.000000,302.000000 311.960571,301.971893 312.328369,302.005249 
	C313.786041,300.672333 314.875885,299.306030 315.986969,297.955261 
	C316.008209,297.970764 315.955902,297.975403 316.216156,297.913513 
	C316.643890,297.552032 316.811371,297.252472 316.978394,296.979431 
	C316.977936,297.006012 316.948700,296.961365 317.278320,297.004395 
	C318.042664,296.974884 318.477386,296.902313 319.229309,296.718994 
	C326.354584,289.887482 333.443848,283.421844 339.862030,276.347382 
	C343.534119,272.299805 346.480103,268.461426 352.121887,272.742126 
	C351.998779,272.779358 352.250885,272.732758 352.293762,273.086243 
	C353.329010,274.217651 354.321350,274.995514 355.580383,275.952911 
	C357.196869,277.531219 358.546692,278.930054 359.942200,280.602783 
	C360.555298,281.284546 361.122742,281.692352 361.958130,282.304321 
	C364.221405,284.572845 366.216705,286.637238 368.244019,288.979858 
	C368.578705,289.448090 368.881439,289.638062 369.161926,289.876831 
	C369.139740,289.925629 369.198303,289.821075 369.172455,290.178467 
	C369.875122,290.941101 370.603668,291.346405 371.598999,291.930725 
	C373.210083,293.510071 374.554352,294.910370 375.947571,296.616882 
	C376.934143,297.646118 377.871765,298.369202 378.861084,299.084167 
	C378.912811,299.076080 378.911072,299.180756 378.910797,299.535614 
	C377.381805,302.352051 376.201904,305.145233 374.246918,307.201538 
	C370.871460,310.751892 366.938293,313.764313 363.378296,317.148804 
	C358.627899,321.665070 353.775665,326.111633 349.419128,330.991577 
	C346.557831,334.196625 344.494629,338.114227 342.074036,341.712708 
	C330.729706,353.053223 319.385406,364.393768 307.566223,376.110779 
	C305.938477,377.396515 304.675446,378.196655 303.649963,379.232117 
	C294.872314,388.095398 286.310974,397.181305 275.273407,403.416351 
	C242.076752,422.168884 207.789749,424.722656 172.812836,409.353363 
	C163.049637,405.063293 154.313858,398.435089 145.106750,392.879456 
	C145.106750,392.879486 145.001999,392.992554 144.996292,392.613708 
	C143.117020,390.412659 141.121277,388.698761 139.392761,386.748047 
	C134.203445,380.891693 129.118439,374.942871 123.992722,369.030151 
	C123.728264,368.513123 123.463814,367.996124 123.026207,366.903259 
	C113.960388,351.251740 108.032768,335.232941 106.570641,317.623779 
	C103.669456,282.683319 114.407013,252.677948 139.172165,227.962265 
	C145.809891,221.337799 153.673004,215.941147 160.973587,209.980865 
	C160.973587,209.980865 161.000244,210.000610 161.350494,209.945953 
	C174.074615,203.452957 186.904068,198.345932 200.823303,196.358337 
	C203.560516,195.967468 206.264374,195.342926 208.983612,194.826141 
	C211.369629,194.825562 213.755661,194.824951 216.943329,194.865204 
	C218.488983,194.832169 219.233017,194.758270 219.977036,194.684372 
	C221.362274,194.748077 222.747528,194.811783 224.935516,194.971344 
	C227.046600,195.281631 228.347458,195.578293 229.664398,195.697952 
	C246.468109,197.224731 262.118896,202.448563 276.235107,211.540146 
	C284.247345,216.700439 291.456451,223.107773 299.027252,228.953491 
	C299.027252,228.953506 299.000000,228.999985 299.106689,229.313263 
	C301.180908,232.336807 303.148468,235.047058 305.116028,237.757309 
z"/>
<path fill="#FC510F" opacity="1.000000" stroke="none" 
	d="
M583.095398,497.129059 
	C575.629150,509.757477 568.221863,521.999268 561.125000,534.418396 
	C559.725952,536.866516 558.970154,539.979431 558.872986,542.818420 
	C558.583435,551.279175 558.769104,559.756104 558.769104,568.616699 
	C549.250244,568.616699 540.056946,568.616699 530.292969,568.616699 
	C530.292969,560.356079 530.582581,552.221497 530.161377,544.123962 
	C529.972656,540.495300 529.040527,536.557190 527.273254,533.420044 
	C520.254822,520.961365 512.779175,508.760010 505.456085,496.473328 
	C504.637390,495.099670 503.711670,493.789795 502.080139,491.295380 
	C502.080139,497.143036 502.080139,501.679077 502.080139,506.733612 
	C493.726013,506.733612 485.817291,506.733612 477.318268,506.733612 
	C477.318268,527.623474 477.318268,548.000305 477.318268,568.690247 
	C467.665039,568.690247 458.604584,568.690247 449.132294,568.690247 
	C449.132294,548.356873 449.132294,528.105103 449.132294,507.276489 
	C440.852661,507.276489 432.948242,507.276489 424.672455,507.276489 
	C424.672455,499.655609 424.672455,492.608215 424.672455,485.256592 
	C426.287445,485.159943 427.739929,484.997742 429.192474,484.997162 
	C460.840057,484.984497 492.487793,485.037842 524.134888,484.918396 
	C527.336365,484.906311 529.159180,485.740173 530.761230,488.655426 
	C535.313904,496.939911 540.275757,504.999512 545.591492,514.021667 
	C549.997925,506.651978 554.524109,500.268341 557.785034,493.293152 
	C561.018616,486.376404 565.530151,483.922119 572.973389,484.863373 
	C578.320923,485.539612 583.822815,484.994995 590.180542,484.994995 
	C587.572937,489.446777 585.418030,493.125641 583.095398,497.129059 
z"/>
<path fill="#FC510F" opacity="1.000000" stroke="none" 
	d="
M113.691849,500.292572 
	C119.915649,507.638763 125.908508,514.714233 132.840118,522.898071 
	C132.840118,509.504669 132.840118,497.492432 132.840118,485.293793 
	C142.338440,485.293793 151.230301,485.293793 160.363464,485.293793 
	C160.363464,513.183655 160.363464,540.766907 160.363464,568.994995 
	C153.060867,568.994995 145.950592,569.164795 138.861420,568.853821 
	C137.419037,568.790588 135.798798,567.136108 134.697708,565.842957 
	C126.707634,556.459412 118.836014,546.975159 110.910233,537.536743 
	C109.540115,535.905090 108.091011,534.339722 105.699203,531.637451 
	C105.699203,544.704346 105.699203,556.482178 105.699203,568.630493 
	C96.096161,568.630493 87.216797,568.630493 78.033859,568.630493 
	C78.033859,540.921021 78.033859,513.329895 78.033859,485.041931 
	C85.275383,485.041931 92.543488,484.922668 99.799675,485.163269 
	C100.963966,485.201874 102.245094,486.700989 103.180206,487.778381 
	C106.672874,491.802460 110.044121,495.931946 113.691849,500.292572 
z"/>
<path fill="#FC500E" opacity="1.000000" stroke="none" 
	d="
M320.219269,566.795288 
	C319.527161,567.840576 318.856323,568.885559 318.171326,568.894958 
	C309.887970,569.007996 301.602509,568.968140 293.066315,568.968140 
	C293.066315,540.884888 293.066315,513.291931 293.066315,485.021667 
	C300.219025,485.021667 307.326843,484.848541 314.412720,485.165680 
	C315.855072,485.230255 317.462402,486.929321 318.572876,488.233307 
	C326.455444,497.489532 334.224457,506.842377 342.039948,516.155884 
	C343.610748,518.027771 345.225464,519.862915 347.669189,522.701477 
	C347.669189,509.517151 347.669189,497.634186 347.669189,485.374451 
	C357.032318,485.374451 365.931061,485.374451 375.174744,485.374451 
	C375.174744,513.091614 375.174744,540.831299 375.174744,568.993958 
	C367.919006,568.993958 360.931793,569.197144 353.973389,568.839478 
	C352.394287,568.758362 350.634705,566.971191 349.434875,565.563171 
	C340.687347,555.296997 332.064240,544.924805 323.391846,534.594482 
	C322.771881,533.856018 322.073059,533.183716 320.233948,531.230896 
	C320.233948,543.861267 320.233948,555.087463 320.219269,566.795288 
z"/>
<path fill="#FB510F" opacity="1.000000" stroke="none" 
	d="
M190.002502,484.994476 
	C207.453781,484.994476 224.405807,484.994476 241.667664,484.994476 
	C241.667664,492.173279 241.667664,498.890472 241.667664,506.245300 
	C231.636948,506.245300 221.862900,506.240753 212.088852,506.246552 
	C201.905029,506.252563 201.905792,506.256927 201.976349,516.591064 
	C201.984253,517.747864 201.977417,518.904785 201.977417,520.693420 
	C213.581467,520.693420 224.960342,520.693420 236.666687,520.693420 
	C236.666687,528.036438 236.666687,534.752380 236.666687,541.993774 
	C225.258362,541.993774 214.014038,541.993774 202.235977,541.993774 
	C202.235977,551.061890 202.235977,559.635437 202.235977,568.604309 
	C192.651535,568.604309 183.596436,568.604309 174.136978,568.604309 
	C174.136978,540.991211 174.136978,513.301086 174.136978,484.994476 
	C179.287903,484.994476 184.395584,484.994476 190.002502,484.994476 
z"/>
<path fill="#FC500F" opacity="1.000000" stroke="none" 
	d="
M273.853088,569.005615 
	C266.069397,569.006042 258.770844,569.006042 251.140091,569.006042 
	C251.140091,540.911377 251.140091,513.212097 251.140091,485.249420 
	C260.274353,485.249420 269.215851,485.249420 278.581604,485.249420 
	C278.581604,512.920654 278.581604,540.622070 278.581604,568.695679 
	C277.220917,568.794922 275.779602,568.900085 273.853088,569.005615 
z"/>
<path fill="#FA510F" opacity="1.000000" stroke="none" 
	d="
M47.018188,569.008850 
	C43.208900,569.008118 39.896370,569.008118 36.165665,569.008118 
	C36.165665,541.032837 36.165665,513.343872 36.165665,485.316956 
	C45.209785,485.316956 54.269608,485.316956 63.667595,485.316956 
	C63.667595,513.015442 63.667595,540.584534 63.667595,569.009583 
	C58.346455,569.009583 52.930702,569.009583 47.018188,569.008850 
z"/>
<path fill="#FC500E" opacity="1.000000" stroke="none" 
	d="
M388.809204,519.000000 
	C388.809174,507.536346 388.809174,496.572723 388.809174,485.302612 
	C398.292816,485.302612 407.355835,485.302612 416.712402,485.302612 
	C416.712402,513.039001 416.712402,540.622925 416.712402,568.608887 
	C407.720886,568.608887 398.660339,568.608887 388.809265,568.608887 
	C388.809265,552.315308 388.809265,535.907654 388.809204,519.000000 
z"/>
<path fill="#FDEED5" opacity="1.000000" stroke="none" 
	d="
M145.066711,393.260254 
	C154.313858,398.435089 163.049637,405.063293 172.812836,409.353363 
	C207.789749,424.722656 242.076752,422.168884 275.273407,403.416351 
	C286.310974,397.181305 294.872314,388.095398 303.649963,379.232117 
	C304.675446,378.196655 305.938477,377.396515 307.390503,376.429626 
	C309.382935,378.365479 311.076263,380.358917 312.846924,382.669128 
	C310.963898,382.010742 309.003540,381.035583 308.258575,380.665009 
	C304.431244,383.766754 300.484528,387.152740 296.343353,390.281281 
	C288.367310,396.307068 280.850555,403.278809 272.093811,407.845947 
	C261.612885,413.312347 250.558685,418.241089 238.306366,419.023376 
	C230.762314,419.505066 223.245758,420.770935 215.705124,420.880981 
	C198.609772,421.130463 182.306442,417.080841 166.983551,409.701996 
	C160.302155,406.484467 154.221405,401.981689 148.020508,397.834412 
	C146.685074,396.941254 146.007355,395.064667 145.066711,393.260254 
z"/>
<path fill="#FDEED5" opacity="1.000000" stroke="none" 
	d="
M160.576385,209.970367 
	C153.673004,215.941147 145.809891,221.337799 139.172165,227.962265 
	C114.407013,252.677948 103.669456,282.683319 106.570641,317.623779 
	C108.032768,335.232941 113.960388,351.251740 122.841232,366.678894 
	C120.599907,365.828705 115.421303,357.946777 114.788719,355.672180 
	C113.973251,352.740082 112.934380,349.792450 111.484909,347.127167 
	C103.425629,332.307983 104.271652,316.087708 104.154167,300.097168 
	C104.105911,293.529480 104.400406,286.620514 106.400719,280.472534 
	C108.369041,274.422821 108.268585,267.787292 112.799622,262.195465 
	C117.222633,256.736969 120.167587,249.912048 122.968437,243.348587 
	C126.880783,234.180481 135.424789,228.969711 141.171234,221.333572 
	C145.283554,215.868958 153.689148,213.635178 160.576385,209.970367 
z"/>
<path fill="#FDEED5" opacity="1.000000" stroke="none" 
	d="
M299.034180,228.589493 
	C291.456451,223.107773 284.247345,216.700439 276.235107,211.540146 
	C262.118896,202.448563 246.468109,197.224731 229.664398,195.697952 
	C228.347458,195.578293 227.046600,195.281631 225.349274,194.918427 
	C227.642181,190.784668 230.942978,194.444275 233.915695,194.233322 
	C245.114746,193.438614 255.325531,198.172501 265.025024,202.569733 
	C275.258972,207.209244 284.478668,214.192474 293.821350,220.617294 
	C296.186676,222.243896 297.334045,225.641617 299.034180,228.589493 
z"/>
<path fill="#FDEED5" opacity="1.000000" stroke="none" 
	d="
M208.897675,194.454224 
	C206.264374,195.342926 203.560516,195.967468 200.823303,196.358337 
	C186.904068,198.345932 174.074615,203.452957 161.341766,209.931854 
	C162.848969,203.661209 169.575470,204.449829 173.729401,201.435379 
	C176.818497,199.193680 180.761383,197.741669 184.537842,196.915802 
	C192.022446,195.279022 199.651520,194.296341 207.234299,193.130569 
	C207.700333,193.058929 208.283203,193.747452 208.897675,194.454224 
z"/>
<path fill="#FDEED5" opacity="1.000000" stroke="none" 
	d="
M123.973312,369.426178 
	C129.118439,374.942871 134.203445,380.891693 139.392761,386.748047 
	C141.121277,388.698761 143.117020,390.412659 145.055206,392.564148 
	C143.086151,392.098602 140.495346,391.840576 139.119125,390.412292 
	C134.217072,385.324585 129.633926,379.915771 125.160957,374.439941 
	C124.245804,373.319580 124.330238,371.382690 123.973312,369.426178 
z"/>
<path fill="#FDEED5" opacity="1.000000" stroke="none" 
	d="
M305.457642,237.773315 
	C303.148468,235.047058 301.180908,232.336807 299.129822,229.299515 
	C300.245667,229.382034 301.984070,229.424606 302.554413,230.262390 
	C305.609131,234.749512 308.897491,233.651352 312.773804,231.096710 
	C310.689301,233.333527 308.244263,235.561417 305.457642,237.773315 
z"/>
<path fill="#FDEED5" opacity="1.000000" stroke="none" 
	d="
M314.820892,229.126007 
	C314.680328,229.761612 314.192627,230.381195 313.405945,231.068634 
	C313.562592,230.460983 314.018158,229.785477 314.820892,229.126007 
z"/>
<path fill="#FDEED5" opacity="1.000000" stroke="none" 
	d="
M219.779144,194.483063 
	C219.233017,194.758270 218.488983,194.832169 217.384521,194.791870 
	C217.876450,194.545715 218.728851,194.413742 219.779144,194.483063 
z"/>
<path fill="#FDEED5" opacity="1.000000" stroke="none" 
	d="
M318.939758,225.163345 
	C319.018158,225.411423 318.819977,225.709824 318.348389,226.065842 
	C318.271057,225.820190 318.467102,225.516922 318.939758,225.163345 
z"/>
<path fill="#FDEED5" opacity="1.000000" stroke="none" 
	d="
M317.854309,226.158417 
	C317.962830,226.400421 317.802185,226.725967 317.372803,227.133499 
	C317.264404,226.890976 317.424774,226.566467 317.854309,226.158417 
z"/>
<path fill="#FDEED5" opacity="1.000000" stroke="none" 
	d="
M315.903809,228.160217 
	C316.004395,228.408127 315.833923,228.724213 315.393219,229.107544 
	C315.292908,228.859344 315.462860,228.543869 315.903809,228.160217 
z"/>
<path fill="#FEFCFB" opacity="1.000000" stroke="none" 
	d="
M368.212036,288.701599 
	C366.216705,286.637238 364.221405,284.572845 361.937012,282.021759 
	C361.064178,281.132965 360.480347,280.730927 359.896545,280.328857 
	C358.546692,278.930054 357.196869,277.531219 355.503235,275.636658 
	C354.189941,274.338165 353.220398,273.535461 352.250885,272.732758 
	C352.250885,272.732758 351.998779,272.779358 352.038513,272.418274 
	C350.631744,269.994598 349.185242,267.932007 347.738739,265.869446 
	C369.087616,241.018738 401.604736,238.311127 425.274261,250.677643 
	C451.181061,264.213013 464.825165,294.474396 457.470978,322.528748 
	C449.839478,351.640900 423.651398,371.355225 393.963348,370.294128 
	C373.504517,369.562927 357.296600,360.656982 344.687073,344.134003 
	C344.424438,343.374359 344.220245,343.275024 343.922638,343.366791 
	C343.818848,343.183014 343.715027,342.999207 343.570374,342.187866 
	C346.045288,338.722137 348.438904,335.763519 351.098816,333.067596 
	C360.308929,323.732819 369.632355,314.509979 378.861786,305.194153 
	C380.726654,303.311829 383.025848,301.212799 378.911072,299.180756 
	C378.911072,299.180756 378.912811,299.076080 378.850128,298.770599 
	C377.824493,297.746979 376.861542,297.028839 375.898590,296.310699 
	C374.554352,294.910370 373.210083,293.510071 371.512085,291.634705 
	C370.504974,290.713440 369.851654,290.267273 369.198303,289.821075 
	C369.198303,289.821075 369.139740,289.925629 369.109253,289.610962 
	C368.789886,289.098053 368.500946,288.899811 368.212036,288.701599 
z"/>
<path fill="#A9383C" opacity="1.000000" stroke="none" 
	d="
M246.057846,300.056519 
	C243.910873,302.656677 241.900589,305.386322 239.587372,307.829041 
	C235.276077,312.381805 235.193085,312.685455 239.479050,316.976624 
	C247.189926,324.696869 255.090286,332.239960 262.531250,340.211945 
	C265.587128,343.485962 268.294769,341.611664 271.504272,341.342590 
	C271.136780,342.755463 270.535309,343.863251 269.933838,344.971039 
	C269.933838,344.971039 269.989532,345.001251 269.674316,344.926270 
	C268.890442,345.235260 268.421783,345.619263 267.953125,346.003235 
	C267.953156,346.003265 268.002899,346.011261 267.685608,346.008270 
	C266.946442,346.022125 266.524536,346.038940 265.856415,345.818176 
	C254.542938,334.651367 243.475693,323.722107 232.024048,312.413239 
	C236.939438,307.717102 241.225296,303.622406 245.647858,299.659912 
	C245.784546,299.792053 246.057846,300.056519 246.057846,300.056519 
z"/>
<path fill="#EF9568" opacity="1.000000" stroke="none" 
	d="
M378.910797,299.535614 
	C383.025848,301.212799 380.726654,303.311829 378.861786,305.194153 
	C369.632355,314.509979 360.308929,323.732819 351.098816,333.067596 
	C348.438904,335.763519 346.045288,338.722137 343.393707,341.925049 
	C342.950623,342.267334 342.683136,342.152435 342.264709,341.828857 
	C344.494629,338.114227 346.557831,334.196625 349.419128,330.991577 
	C353.775665,326.111633 358.627899,321.665070 363.378296,317.148804 
	C366.938293,313.764313 370.871460,310.751892 374.246918,307.201538 
	C376.201904,305.145233 377.381805,302.352051 378.910797,299.535614 
z"/>
<path fill="#EF9568" opacity="1.000000" stroke="none" 
	d="
M347.416016,265.923370 
	C349.185242,267.932007 350.631744,269.994598 352.161621,272.381042 
	C346.480103,268.461426 343.534119,272.299805 339.862030,276.347382 
	C333.443848,283.421844 326.354584,289.887482 319.078125,296.491699 
	C318.292236,296.188721 317.974792,296.002319 317.773315,295.520844 
	C318.073212,294.843475 318.257111,294.461182 318.441010,294.078857 
	C319.232391,293.339752 320.023773,292.600647 321.197876,291.464691 
	C321.745605,290.724365 321.910553,290.380859 322.075500,290.037384 
	C322.075500,290.037384 322.007965,290.060120 322.345398,289.975891 
	C323.608643,288.772766 324.534485,287.653931 325.750244,286.405304 
	C326.422729,285.582520 326.805298,284.889496 327.187866,284.196472 
	C327.187866,284.196472 327.007538,283.999847 327.402771,284.148804 
	C328.564270,283.619629 329.330566,282.941467 330.357452,282.119385 
	C330.887573,281.685730 331.157104,281.396057 331.426636,281.106384 
	C331.904999,280.691956 332.383362,280.277527 333.261292,279.444580 
	C334.172211,278.078705 334.683502,277.131348 335.194794,276.183990 
	C335.194794,276.183990 335.120789,276.000641 335.478302,276.127899 
	C337.256958,274.859802 338.678070,273.464417 340.099213,272.069061 
	C340.099213,272.069061 340.000336,272.041748 340.272400,272.008911 
	C340.841919,271.817993 341.060699,271.585815 341.200775,271.279541 
	C343.164948,269.512115 345.129120,267.744720 347.416016,265.923370 
z"/>
<path fill="#DE8F4A" opacity="1.000000" stroke="none" 
	d="
M262.059509,259.938049 
	C264.150726,261.840942 266.227753,263.759705 268.337677,265.641602 
	C269.974365,267.101440 271.652069,268.515259 273.667694,269.998596 
	C273.428802,270.902008 272.833740,271.756317 271.955231,272.895538 
	C271.671783,273.180420 271.297729,273.113007 271.114960,272.805511 
	C267.793365,268.500183 264.654572,264.502350 261.651733,260.362946 
	C261.787720,260.221375 262.059509,259.938049 262.059509,259.938049 
z"/>
<path fill="#A9383C" opacity="1.000000" stroke="none" 
	d="
M256.057800,290.052002 
	C252.950958,293.345673 249.844116,296.639313 246.397552,299.994751 
	C246.057846,300.056519 245.784546,299.792053 245.785248,299.356354 
	C249.038849,295.775391 252.291763,292.630157 255.672226,289.627350 
	C255.799774,289.769775 256.057800,290.052002 256.057800,290.052002 
z"/>
<path fill="#A9383C" opacity="1.000000" stroke="none" 
	d="
M305.518097,307.981293 
	C305.518097,307.981293 305.225677,307.917084 305.080139,307.879028 
	C304.886627,302.804077 308.864929,301.172485 312.772705,299.147522 
	C313.220215,299.192200 313.401398,299.351471 313.251648,299.612427 
	C312.721436,300.572845 312.341003,301.272369 311.960571,301.971893 
	C311.960571,301.971893 312.000000,302.000000 311.687195,302.040375 
	C310.905090,302.713654 310.435760,303.346527 309.966431,303.979401 
	C309.966431,303.979401 309.998535,304.002502 309.726196,304.037842 
	C309.291321,304.375885 309.128815,304.678619 308.966309,304.981354 
	C308.966309,304.981354 308.997131,305.003571 308.728088,305.043030 
	C308.292419,305.383545 308.125793,305.684601 307.959167,305.985657 
	C307.959198,305.985657 308.003906,305.996460 307.677826,306.062683 
	C306.740540,306.746399 306.129303,307.363831 305.518097,307.981293 
z"/>
<path fill="#A9383C" opacity="1.000000" stroke="none" 
	d="
M268.198608,277.245453 
	C266.379242,279.478699 264.559875,281.711945 262.265259,283.871185 
	C261.789978,283.797211 261.518890,283.534271 261.653320,283.232666 
	C263.858551,280.954071 265.929382,278.977112 268.051697,277.059937 
	C268.103241,277.119690 268.198608,277.245453 268.198608,277.245453 
z"/>
<path fill="#FC976B" opacity="1.000000" stroke="none" 
	d="
M270.274292,344.927979 
	C270.535309,343.863251 271.136780,342.755463 271.881195,341.353943 
	C272.024139,341.060242 272.029114,341.031982 272.268463,340.943481 
	C272.796875,340.662048 272.966644,340.393646 273.017059,340.049744 
	C273.017059,340.049744 273.216858,339.773132 273.518311,339.493042 
	C274.204559,338.816101 274.589325,338.419250 274.974060,338.022400 
	C275.420044,337.931091 275.866058,337.839813 276.640808,337.843201 
	C274.851288,340.253601 272.733032,342.569275 270.274292,344.927979 
z"/>
<path fill="#A9383C" opacity="1.000000" stroke="none" 
	d="
M299.589020,313.908844 
	C299.260986,313.968750 298.932983,314.028625 298.356140,314.101318 
	C298.045441,310.389130 301.080109,309.496368 303.947449,308.132843 
	C304.306885,308.143799 304.225342,308.581146 304.006165,309.045624 
	C303.175446,310.333069 302.563934,311.156067 301.952423,311.979034 
	C301.952423,311.979034 302.001068,311.998932 301.693237,312.071014 
	C300.786591,312.731689 300.187805,313.320282 299.589020,313.908844 
z"/>
<path fill="#FC976B" opacity="1.000000" stroke="none" 
	d="
M284.719452,328.947357 
	C283.542389,330.642242 282.113647,332.342194 280.331757,333.781555 
	C279.978577,333.520966 280.033813,333.067017 280.033813,333.067017 
	C280.033813,333.067017 280.035980,333.033752 280.302887,332.889954 
	C280.780853,332.231537 280.991913,331.716949 281.202972,331.202362 
	C281.202972,331.202362 281.248718,331.195709 281.559204,331.141998 
	C282.569733,330.401062 283.269775,329.713837 283.969849,329.026642 
	C284.135834,329.001862 284.301788,328.977112 284.719452,328.947357 
z"/>
<path fill="#A9241B" opacity="1.000000" stroke="none" 
	d="
M325.460327,286.535065 
	C324.534485,287.653931 323.608643,288.772766 322.379822,289.985077 
	C322.470978,288.436127 322.865112,286.793732 323.629608,285.075684 
	C324.000000,285.000000 323.996704,284.996613 324.102051,285.218597 
	C324.408051,285.716217 324.671814,285.902283 325.111176,286.135406 
	C325.223572,286.272034 325.460327,286.535065 325.460327,286.535065 
z"/>
<path fill="#A9383C" opacity="1.000000" stroke="none" 
	d="
M261.925262,283.928955 
	C260.963379,285.377380 259.866211,286.694061 258.239838,287.886658 
	C257.710632,287.762604 257.359894,287.465820 257.531555,287.193604 
	C258.975128,285.792328 260.247009,284.663300 261.518890,283.534271 
	C261.518890,283.534271 261.789978,283.797211 261.925262,283.928955 
z"/>
<path fill="#A82117" opacity="1.000000" stroke="none" 
	d="
M339.734375,272.073242 
	C338.678070,273.464417 337.256958,274.859802 335.498169,276.224701 
	C336.563507,274.821991 337.966522,273.449707 339.734375,272.073242 
z"/>
<path fill="#A9241B" opacity="1.000000" stroke="none" 
	d="
M318.097778,294.134796 
	C318.257111,294.461182 318.073212,294.843475 317.565613,295.648895 
	C316.960419,296.307800 316.862671,296.604248 316.948700,296.961365 
	C316.948700,296.961365 316.977936,297.006012 316.695496,297.012695 
	C316.260681,297.338013 316.108276,297.656708 315.955872,297.975403 
	C315.955902,297.975403 316.008209,297.970764 315.757874,297.864929 
	C315.507538,297.759125 315.015442,297.777740 314.882874,297.611023 
	C314.537567,297.246094 314.289703,297.113495 314.006714,297.046509 
	C313.364136,293.611786 316.572144,295.230438 318.097778,294.134796 
z"/>
<path fill="#A9383C" opacity="1.000000" stroke="none" 
	d="
M271.297729,273.113007 
	C271.297729,273.113007 271.671783,273.180420 271.861572,273.196411 
	C270.998962,274.502075 269.946594,275.791748 268.546417,277.163452 
	C268.198608,277.245453 268.103241,277.119690 268.161743,276.758881 
	C269.246094,275.303040 270.271912,274.208038 271.297729,273.113007 
z"/>
<path fill="#A82117" opacity="1.000000" stroke="none" 
	d="
M334.871582,276.111542 
	C334.683502,277.131348 334.172211,278.078705 333.381348,279.237976 
	C332.842499,278.334290 332.583191,277.218689 332.215271,275.635742 
	C333.110352,275.790497 333.829376,275.914795 334.871582,276.111542 
z"/>
<path fill="#A9241B" opacity="1.000000" stroke="none" 
	d="
M330.096863,282.263336 
	C329.330566,282.941467 328.564270,283.619629 327.488556,284.250732 
	C327.886841,283.160065 328.594543,282.116425 329.668762,281.351227 
	C330.055817,281.840881 330.076324,282.052124 330.096863,282.263336 
z"/>
<path fill="#FC976B" opacity="1.000000" stroke="none" 
	d="
M290.942291,322.459167 
	C290.219971,323.649261 289.497681,324.839355 288.366699,326.001770 
	C288.223633,325.476501 288.489258,324.978912 289.157990,324.091919 
	C290.021515,323.288055 290.481903,322.873627 290.942291,322.459167 
z"/>
<path fill="#A9241B" opacity="1.000000" stroke="none" 
	d="
M326.878174,284.119873 
	C326.805298,284.889496 326.422729,285.582520 325.750244,286.405304 
	C325.460327,286.535065 325.223572,286.272034 325.003937,285.914856 
	C324.585083,285.281860 324.322540,285.094818 323.996704,284.996613 
	C323.996704,284.996613 324.000000,285.000000 324.001221,285.001221 
	C324.857788,284.682709 325.713135,284.362976 326.878174,284.119873 
z"/>
<path fill="#A9383C" opacity="1.000000" stroke="none" 
	d="
M279.692627,333.085052 
	C280.033813,333.067017 279.978577,333.520966 279.954102,333.748596 
	C279.929626,333.976196 279.978973,333.997314 279.704712,334.083588 
	C278.938477,334.777069 278.446472,335.384277 277.954468,335.991486 
	C277.954468,335.991486 278.004333,336.000702 277.759949,335.992340 
	C277.515533,335.983978 277.042145,336.016174 277.042145,336.016174 
	C277.811920,335.045135 278.581696,334.074097 279.692627,333.085052 
z"/>
<path fill="#A9383C" opacity="1.000000" stroke="none" 
	d="
M283.611450,329.026215 
	C283.269775,329.713837 282.569733,330.401062 281.581451,331.148163 
	C281.946503,330.480621 282.599792,329.753204 283.611450,329.026215 
z"/>
<path fill="#A9383C" opacity="1.000000" stroke="none" 
	d="
M290.985596,322.240784 
	C290.481903,322.873627 290.021515,323.288055 289.286041,323.834412 
	C289.532745,323.028503 290.054535,322.090759 290.950623,321.162109 
	C291.222626,321.453674 291.123962,321.737396 290.985596,322.240784 
z"/>
<path fill="#A9383C" opacity="1.000000" stroke="none" 
	d="
M274.784363,337.788269 
	C274.589325,338.419250 274.204559,338.816101 273.562469,339.328217 
	C273.735016,338.813721 274.164856,338.183929 274.784363,337.788269 
z"/>
<path fill="#FC976B" opacity="1.000000" stroke="none" 
	d="
M287.723145,325.935486 
	C287.526947,326.629852 287.078613,327.307892 286.382996,327.717529 
	C286.415009,326.968658 286.694305,326.488159 286.973572,326.007629 
	C287.139404,325.978119 287.305237,325.948639 287.723145,325.935486 
z"/>
<path fill="#A9383C" opacity="1.000000" stroke="none" 
	d="
M286.659119,326.052490 
	C286.694305,326.488159 286.415009,326.968658 286.036896,327.711334 
	C285.938049,327.973480 285.986816,327.994904 285.750366,327.981232 
	C285.513885,327.967560 285.033539,328.010559 285.033539,328.010559 
	C285.470581,327.372833 285.907623,326.735077 286.659119,326.052490 
z"/>
<path fill="#A9383C" opacity="1.000000" stroke="none" 
	d="
M292.988464,319.969971 
	C293.180450,319.432190 293.372437,318.894379 293.912048,318.287476 
	C294.259705,318.218323 294.461487,318.390289 294.344238,318.644867 
	C294.138702,319.260559 294.050446,319.621674 293.962219,319.982788 
	C293.962219,319.982788 294.000702,320.002686 293.745056,319.972351 
	C293.322449,319.951294 293.155457,319.960632 292.988464,319.969971 
z"/>
<path fill="#DE8F4A" opacity="1.000000" stroke="none" 
	d="
M274.260925,269.933960 
	C274.289307,269.604492 274.532471,269.182953 274.913208,268.941895 
	C274.937134,269.424561 274.745422,269.664429 274.260925,269.933960 
z"/>
<path fill="#A82117" opacity="1.000000" stroke="none" 
	d="
M341.052979,271.071838 
	C341.060699,271.585815 340.841919,271.817993 340.311340,272.042297 
	C340.353851,271.693726 340.629547,271.278961 341.052979,271.071838 
z"/>
<path fill="#FC976B" opacity="1.000000" stroke="none" 
	d="
M276.947296,336.343445 
	C277.042145,336.016174 277.515533,335.983978 277.752258,335.968170 
	C277.826141,336.534729 277.663330,337.117096 277.220886,337.844116 
	C276.911652,337.549408 276.882050,337.110046 276.947296,336.343445 
z"/>
<path fill="#A9383C" opacity="1.000000" stroke="none" 
	d="
M280.917175,331.295227 
	C280.991913,331.716949 280.780853,332.231537 280.318176,332.883301 
	C280.254822,332.476349 280.443085,331.932220 280.917175,331.295227 
z"/>
<path fill="#A9383C" opacity="1.000000" stroke="none" 
	d="
M297.849335,314.216553 
	C298.133698,314.411987 298.106995,314.726959 297.772980,315.417786 
	C297.342255,315.863953 297.169037,315.930054 296.969238,315.968658 
	C296.942627,315.941162 296.889526,315.886017 296.889526,315.886017 
	C297.122375,315.370758 297.355194,314.855530 297.849335,314.216553 
z"/>
<path fill="#A9383C" opacity="1.000000" stroke="none" 
	d="
M295.054413,317.074158 
	C295.479980,316.724213 295.905518,316.374298 296.610291,315.955200 
	C296.889526,315.886017 296.942627,315.941162 296.935242,316.217712 
	C296.936310,316.661652 296.944794,316.829010 296.953278,316.996368 
	C296.953278,316.996368 297.005157,316.996552 296.714142,317.000031 
	C296.093567,317.172455 295.764008,317.341431 295.340118,317.400757 
	C295.245789,317.291138 295.054413,317.074158 295.054413,317.074158 
z"/>
<path fill="#A9241B" opacity="1.000000" stroke="none" 
	d="
M321.809265,290.172363 
	C321.910553,290.380859 321.745605,290.724365 321.329651,291.226257 
	C321.233459,291.025574 321.388245,290.666443 321.809265,290.172363 
z"/>
<path fill="#A9383C" opacity="1.000000" stroke="none" 
	d="
M294.159515,318.131531 
	C294.135773,317.710297 294.316254,317.447266 294.827576,317.164856 
	C295.054413,317.074158 295.245789,317.291138 295.179718,317.549377 
	C294.900421,318.006500 294.683014,318.200714 294.461487,318.390289 
	C294.461487,318.390289 294.259705,318.218323 294.159515,318.131531 
z"/>
<path fill="#A82117" opacity="1.000000" stroke="none" 
	d="
M330.357452,282.119385 
	C330.076324,282.052124 330.055817,281.840881 330.017029,281.311768 
	C330.236420,281.007782 330.474030,281.021698 331.069153,281.070984 
	C331.157104,281.396057 330.887573,281.685730 330.357452,282.119385 
z"/>
<path fill="#A9383C" opacity="1.000000" stroke="none" 
	d="
M257.884369,287.912903 
	C257.921936,288.361145 257.727570,288.614380 257.138336,288.814331 
	C256.801666,288.805756 256.539154,288.542053 256.617493,288.322906 
	C256.852661,287.823944 257.074005,287.611298 257.359894,287.465820 
	C257.359894,287.465820 257.710632,287.762604 257.884369,287.912903 
z"/>
<path fill="#A9383C" opacity="1.000000" stroke="none" 
	d="
M256.931732,288.938782 
	C256.916229,289.359924 256.716675,289.603851 256.260468,289.927826 
	C256.057800,290.052002 255.799774,289.769775 255.768158,289.406006 
	C255.935684,288.765686 256.203217,288.598969 256.539154,288.542053 
	C256.539154,288.542053 256.801666,288.805756 256.931732,288.938782 
z"/>
<path fill="#FC976B" opacity="1.000000" stroke="none" 
	d="
M292.943237,320.221375 
	C293.155457,319.960632 293.322449,319.951294 293.740173,319.951233 
	C293.825226,320.267792 293.659576,320.575104 293.222992,320.931610 
	C292.934052,320.811462 292.916046,320.642151 292.943237,320.221375 
z"/>
<path fill="#FC976B" opacity="1.000000" stroke="none" 
	d="
M292.722839,320.953125 
	C292.731171,321.143799 292.483002,321.333160 292.120514,321.350616 
	C292.159576,321.103088 292.312958,321.027466 292.722839,320.953125 
z"/>
<path fill="#EF9568" opacity="1.000000" stroke="none" 
	d="
M343.908203,343.534027 
	C344.220245,343.275024 344.424438,343.374359 344.478668,343.842987 
	C344.157898,344.059998 343.981781,343.953369 343.908203,343.534027 
z"/>
<path fill="#A9383C" opacity="1.000000" stroke="none" 
	d="
M272.798126,340.148132 
	C272.966644,340.393646 272.796875,340.662048 272.279785,340.941345 
	C272.127319,340.699646 272.303131,340.439240 272.798126,340.148132 
z"/>
<path fill="#A9383C" opacity="1.000000" stroke="none" 
	d="
M314.012085,297.290161 
	C314.289703,297.113495 314.537567,297.246094 314.720337,297.772400 
	C314.690338,298.100525 314.293884,298.328522 314.224457,298.251404 
	C314.155029,298.174316 314.014923,298.021179 314.014923,298.021179 
	C314.014923,298.021179 314.017426,297.533783 314.012085,297.290161 
z"/>
<path fill="#A9383C" opacity="1.000000" stroke="none" 
	d="
M313.130066,299.112061 
	C313.126373,298.704071 313.305664,298.439026 313.796326,298.128998 
	C314.014923,298.021179 314.155029,298.174316 314.101807,298.443298 
	C313.868225,298.961182 313.652496,299.174225 313.401398,299.351471 
	C313.401398,299.351471 313.220215,299.192200 313.130066,299.112061 
z"/>
<path fill="#FC976B" opacity="1.000000" stroke="none" 
	d="
M284.979980,328.252167 
	C285.033539,328.010559 285.513885,327.967560 285.754822,327.955292 
	C285.821289,328.247589 285.646790,328.552155 285.207275,328.922607 
	C284.942261,328.988464 284.926453,328.493774 284.979980,328.252167 
z"/>
<path fill="#DE8F4A" opacity="1.000000" stroke="none" 
	d="
M268.003479,348.023438 
	C264.828888,355.776550 257.782623,359.602936 251.124283,363.148743 
	C243.681671,367.112244 235.581467,370.105133 227.451447,372.402039 
	C223.393433,373.548553 218.607407,371.798706 214.191818,372.058533 
	C200.442474,372.867554 189.509720,366.438141 178.644775,359.246521 
	C167.122589,351.619720 160.443192,340.471252 156.062408,328.033081 
	C151.991806,316.475586 151.973526,304.330322 154.414200,292.240814 
	C156.738571,280.727478 162.805191,271.254211 170.128159,262.377106 
	C178.212173,252.577438 189.289963,246.990479 200.841370,243.701691 
	C208.948868,241.393433 218.186615,243.113113 226.917084,242.919724 
	C237.384857,242.687851 246.149063,247.199493 254.462433,252.810013 
	C257.166656,254.635025 259.431000,257.111908 261.978027,259.614349 
	C262.059509,259.938049 261.787720,260.221375 261.334595,260.250977 
	C260.323792,259.921692 259.716675,259.620972 259.215485,259.195526 
	C235.680695,239.217377 202.047699,238.336914 178.379776,257.879150 
	C146.856430,283.907501 147.853760,329.076233 176.104462,354.183136 
	C197.044464,372.792877 227.389206,375.129852 249.773849,361.577087 
	C255.801910,357.927429 260.828949,352.624481 266.596558,348.063477 
	C267.252899,348.038788 267.628204,348.031128 268.003479,348.023438 
z"/>
<path fill="#FC976B" opacity="1.000000" stroke="none" 
	d="
M313.251648,299.612427 
	C313.652496,299.174225 313.868225,298.961182 314.171265,298.520416 
	C314.293884,298.328522 314.690338,298.100525 314.852905,297.939148 
	C315.015442,297.777740 315.507538,297.759125 315.736633,297.849426 
	C314.875885,299.306030 313.786041,300.672333 312.328369,302.005249 
	C312.341003,301.272369 312.721436,300.572845 313.251648,299.612427 
z"/>
<path fill="#FC976B" opacity="1.000000" stroke="none" 
	d="
M294.344238,318.644867 
	C294.683014,318.200714 294.900421,318.006500 295.274048,317.658997 
	C295.764008,317.341431 296.093567,317.172455 296.700745,316.977814 
	C296.209045,317.975037 295.439697,318.997925 294.316284,320.001831 
	C294.050446,319.621674 294.138702,319.260559 294.344238,318.644867 
z"/>
<path fill="#EF9568" opacity="1.000000" stroke="none" 
	d="
M375.947571,296.616882 
	C376.861542,297.028839 377.824493,297.746979 378.798401,298.778687 
	C377.871765,298.369202 376.934143,297.646118 375.947571,296.616882 
z"/>
<path fill="#EF9568" opacity="1.000000" stroke="none" 
	d="
M352.293762,273.086243 
	C353.220398,273.535461 354.189941,274.338165 355.236572,275.457153 
	C354.321350,274.995514 353.329010,274.217651 352.293762,273.086243 
z"/>
<path fill="#FC976B" opacity="1.000000" stroke="none" 
	d="
M302.284912,311.998688 
	C302.563934,311.156067 303.175446,310.333069 303.989777,309.267456 
	C303.667511,310.022675 303.142456,311.020508 302.284912,311.998688 
z"/>
<path fill="#FC976B" opacity="1.000000" stroke="none" 
	d="
M299.832977,314.155670 
	C300.187805,313.320282 300.786591,312.731689 301.681213,312.047607 
	C301.343658,312.768890 300.710297,313.585693 299.832977,314.155670 
z"/>
<path fill="#FC976B" opacity="1.000000" stroke="none" 
	d="
M268.019043,347.679688 
	C267.628204,348.031128 267.252899,348.038788 266.523254,347.729675 
	C266.146790,346.960541 266.124725,346.508179 266.102661,346.055786 
	C266.524536,346.038940 266.946442,346.022125 267.684479,345.983093 
	C268.011963,346.419250 268.023285,346.877563 268.019043,347.679688 
z"/>
<path fill="#EF9568" opacity="1.000000" stroke="none" 
	d="
M369.172455,290.178467 
	C369.851654,290.267273 370.504974,290.713440 371.245239,291.455658 
	C370.603668,291.346405 369.875122,290.941101 369.172455,290.178467 
z"/>
<path fill="#FC976B" opacity="1.000000" stroke="none" 
	d="
M278.298950,335.991821 
	C278.446472,335.384277 278.938477,334.777069 279.708618,334.057556 
	C279.538971,334.627533 279.091187,335.309814 278.298950,335.991821 
z"/>
<path fill="#EF9568" opacity="1.000000" stroke="none" 
	d="
M359.942200,280.602783 
	C360.480347,280.730927 361.064178,281.132965 361.669067,281.817596 
	C361.122742,281.692352 360.555298,281.284546 359.942200,280.602783 
z"/>
<path fill="#FC976B" opacity="1.000000" stroke="none" 
	d="
M305.905579,307.999817 
	C306.129303,307.363831 306.740540,306.746399 307.664368,306.044006 
	C307.415680,306.645508 306.854370,307.331909 305.905579,307.999817 
z"/>
<path fill="#FC976B" opacity="1.000000" stroke="none" 
	d="
M310.309753,303.987671 
	C310.435760,303.346527 310.905090,302.713654 311.674133,302.020081 
	C311.533630,302.638275 311.093353,303.317108 310.309753,303.987671 
z"/>
<path fill="#FC976B" opacity="1.000000" stroke="none" 
	d="
M268.266937,346.007507 
	C268.421783,345.619263 268.890442,345.235260 269.676147,344.894653 
	C269.522369,345.295929 269.051575,345.653870 268.266937,346.007507 
z"/>
<path fill="#FC976B" opacity="1.000000" stroke="none" 
	d="
M317.278320,297.004395 
	C316.862671,296.604248 316.960419,296.307800 317.449646,295.943939 
	C317.974792,296.002319 318.292236,296.188721 318.760895,296.602448 
	C318.477386,296.902313 318.042664,296.974884 317.278320,297.004395 
z"/>
<path fill="#EF9568" opacity="1.000000" stroke="none" 
	d="
M368.244019,288.979858 
	C368.500946,288.899811 368.789886,289.098053 369.131470,289.562164 
	C368.881439,289.638062 368.578705,289.448090 368.244019,288.979858 
z"/>
<path fill="#FC976B" opacity="1.000000" stroke="none" 
	d="
M297.255005,316.862732 
	C296.944794,316.829010 296.936310,316.661652 296.961823,316.245239 
	C297.169037,315.930054 297.342255,315.863953 297.755585,315.655090 
	C297.849396,315.917908 297.703064,316.323517 297.255005,316.862732 
z"/>
<path fill="#FC976B" opacity="1.000000" stroke="none" 
	d="
M309.237793,304.938538 
	C309.128815,304.678619 309.291321,304.375885 309.719696,304.019287 
	C309.826813,304.275482 309.668060,304.585602 309.237793,304.938538 
z"/>
<path fill="#FC976B" opacity="1.000000" stroke="none" 
	d="
M316.216125,297.913513 
	C316.108276,297.656708 316.260681,297.338013 316.695984,296.986115 
	C316.811371,297.252472 316.643890,297.552032 316.216125,297.913513 
z"/>
<path fill="#FC976B" opacity="1.000000" stroke="none" 
	d="
M308.218292,305.923096 
	C308.125793,305.684601 308.292419,305.383545 308.721680,305.025330 
	C308.815369,305.265625 308.646393,305.563080 308.218292,305.923096 
z"/>
<path fill="#FEFDFB" opacity="1.000000" stroke="none" 
	d="
M265.856415,345.818207 
	C266.124725,346.508179 266.146790,346.960541 266.242188,347.746704 
	C260.828949,352.624481 255.801910,357.927429 249.773849,361.577087 
	C227.389206,375.129852 197.044464,372.792877 176.104462,354.183136 
	C147.853760,329.076233 146.856430,283.907501 178.379776,257.879150 
	C202.047699,238.336914 235.680695,239.217377 259.215485,259.195526 
	C259.716675,259.620972 260.323792,259.921692 261.198608,260.392548 
	C264.654572,264.502350 267.793365,268.500183 271.114960,272.805511 
	C270.271912,274.208038 269.246094,275.303040 268.110229,276.699097 
	C265.929382,278.977112 263.858551,280.954071 261.653320,283.232666 
	C260.247009,284.663300 258.975128,285.792328 257.531555,287.193604 
	C257.074005,287.611298 256.852661,287.823944 256.617493,288.322906 
	C256.203217,288.598969 255.935684,288.765686 255.640610,289.263550 
	C252.291763,292.630157 249.038849,295.775391 245.648560,299.224182 
	C241.225296,303.622406 236.939438,307.717102 232.024048,312.413239 
	C243.475693,323.722107 254.542938,334.651367 265.856415,345.818207 
z"/>
<path fill="#B72228" opacity="1.000000" stroke="none" 
	d="
M324.102051,285.218597 
	C324.322540,285.094818 324.585083,285.281860 324.891541,285.778259 
	C324.671814,285.902283 324.408051,285.716217 324.102051,285.218597 
z"/>
</svg>